<svg xmlns="http://www.w3.org/2000/svg" xmlns:xlink="http://www.w3.org/1999/xlink" width="80" zoomAndPan="magnify" viewBox="0 0 60 30.000001" height="40" preserveAspectRatio="xMidYMid meet" version="1.0"><defs><clipPath id="8f38e417ca"><path d="M 9 7.101562 L 56.128906 7.101562 L 56.128906 21.617188 L 9 21.617188 Z M 9 7.101562 " clip-rule="nonzero"/></clipPath><clipPath id="c1fbf5ffb0"><path d="M 4 7.101562 L 9 7.101562 L 9 19 L 4 19 Z M 4 7.101562 " clip-rule="nonzero"/></clipPath></defs><g clip-path="url(#8f38e417ca)"><path fill="#ffffff" d="M 55.90625 14.621094 C 55.820312 14.722656 55.707031 14.8125 55.644531 14.9375 C 55.550781 15.179688 55.53125 15.457031 55.394531 15.679688 C 55.300781 15.855469 55.070312 16.097656 54.945312 16.078125 C 54.769531 16.058594 54.570312 15.835938 54.46875 15.652344 C 54.351562 15.445312 54.289062 15.179688 54.289062 14.9375 C 54.269531 13.917969 54.257812 12.894531 54.28125 11.875 C 54.289062 11.070312 54.1875 10.875 53.40625 10.640625 C 52.875 10.46875 52.632812 10.558594 52.445312 11.101562 C 52.164062 11.90625 51.914062 12.742188 51.65625 13.558594 C 51.625 13.660156 51.582031 13.753906 51.550781 13.855469 C 51.457031 13.703125 51.425781 13.570312 51.425781 13.425781 C 51.40625 12.792969 51.375 12.140625 51.34375 11.507812 C 51.320312 10.988281 51.019531 10.714844 50.445312 10.582031 C 49.9375 10.46875 49.75 10.804688 49.59375 11.160156 C 49.46875 11.457031 49.351562 11.765625 49.238281 12.058594 C 49.132812 12.34375 49.03125 12.652344 48.90625 12.988281 C 48.851562 12.90625 48.832031 12.894531 48.832031 12.875 C 48.832031 12.417969 48.820312 11.9375 48.820312 11.476562 C 48.820312 10.785156 48.800781 10.753906 48.113281 10.621094 C 47.644531 10.53125 47.550781 10.601562 47.53125 11.058594 C 47.519531 12.109375 47.539062 13.160156 47.476562 14.222656 C 47.457031 14.671875 47.3125 15.140625 47.144531 15.570312 C 47.039062 15.863281 46.851562 16.230469 46.425781 16.171875 C 45.988281 16.109375 45.949219 15.710938 45.925781 15.386719 C 45.90625 14.089844 45.894531 12.792969 45.90625 11.488281 C 45.90625 11.140625 45.894531 10.875 45.488281 10.785156 C 45.105469 10.691406 44.6875 10.507812 44.488281 11.058594 C 43.25 10.121094 42.21875 10.355469 41.519531 11.734375 C 41.019531 12.710938 40.96875 13.785156 41.074219 14.855469 C 41.09375 15.039062 41.144531 15.253906 41.09375 15.425781 C 41 15.773438 40.863281 16.171875 40.40625 16.191406 C 39.949219 16.210938 39.792969 15.835938 39.75 15.496094 C 39.667969 14.957031 39.605469 14.394531 39.644531 13.855469 C 39.699219 13.222656 39.875 12.589844 39.988281 11.957031 C 40.09375 11.386719 39.824219 11.082031 39.230469 11.109375 C 39 11.121094 38.792969 11.183594 38.574219 11.203125 C 38.3125 11.234375 38.0625 11.285156 37.800781 11.316406 C 37.824219 11.285156 37.863281 11.234375 37.886719 11.203125 C 37.738281 10.9375 37.65625 10.582031 37.4375 10.4375 C 37.25 10.324219 36.84375 10.386719 36.613281 10.507812 C 36.15625 10.753906 36.019531 11.488281 36.363281 11.898438 C 36.5625 12.132812 36.574219 12.335938 36.457031 12.570312 C 36.082031 13.355469 35.699219 14.152344 35.3125 14.9375 C 35.261719 15.039062 35.15625 15.128906 35.082031 15.222656 C 34.988281 15.039062 34.988281 14.886719 34.988281 14.722656 C 35 13.609375 35.011719 12.5 35.011719 11.386719 C 35.011719 11.222656 34.980469 11.019531 34.886719 10.917969 C 34.53125 10.582031 33.917969 10.652344 33.613281 11.039062 C 33.5625 11.007812 33.519531 10.976562 33.46875 10.949219 C 32.582031 10.222656 31.582031 10.347656 30.9375 11.285156 C 30.199219 12.375 30.136719 13.601562 30.175781 14.855469 C 30.1875 15.203125 30.074219 15.609375 29.886719 15.90625 C 29.625 16.34375 29.15625 16.273438 28.980469 15.804688 C 28.886719 15.546875 28.824219 15.261719 28.824219 14.996094 C 28.8125 13.785156 28.8125 12.578125 28.84375 11.367188 C 28.855469 10.867188 28.542969 10.792969 28.167969 10.722656 C 27.824219 10.652344 27.53125 10.652344 27.457031 11.121094 C 26.542969 10.316406 25.59375 10.273438 24.949219 11.050781 C 24.644531 11.40625 24.386719 11.855469 24.25 12.292969 C 24.074219 12.875 24.019531 13.5 23.957031 14.101562 C 23.875 14.761719 23.625 15.335938 23.136719 15.804688 C 22.792969 16.121094 22.5 16.058594 22.332031 15.640625 C 22.230469 15.34375 22.144531 15.019531 22.144531 14.703125 C 22.15625 13.34375 22.199219 11.988281 22.21875 10.632812 C 22.21875 10.386719 22.324219 10.285156 22.574219 10.296875 C 22.980469 10.296875 23.375 10.285156 23.78125 10.285156 C 24.136719 10.285156 24.238281 10.082031 24.261719 9.785156 C 24.292969 9.449219 24.050781 9.449219 23.824219 9.4375 C 23.644531 9.429688 23.46875 9.429688 23.292969 9.417969 C 22.269531 9.386719 22.269531 9.386719 22.3125 8.40625 C 22.3125 8.355469 22.3125 8.316406 22.3125 8.285156 C 22.332031 7.519531 22.324219 7.5 21.542969 7.335938 C 21.480469 7.328125 21.425781 7.316406 21.363281 7.304688 C 21.042969 7.234375 20.886719 7.355469 20.855469 7.671875 C 20.832031 8.101562 20.792969 8.519531 20.792969 8.949219 C 20.792969 9.234375 20.675781 9.347656 20.375 9.304688 C 20.09375 9.285156 19.8125 9.273438 19.519531 9.273438 C 19.09375 9.285156 19.105469 9.621094 19.0625 9.898438 C 19.011719 10.222656 19.25 10.234375 19.488281 10.234375 C 19.761719 10.234375 20.019531 10.253906 20.292969 10.253906 C 20.574219 10.253906 20.675781 10.367188 20.675781 10.652344 C 20.667969 11.539062 20.6875 12.4375 20.644531 13.324219 C 20.613281 14.078125 20.207031 14.691406 19.582031 15.3125 C 19.699219 13.671875 18.269531 13.273438 17.457031 12.46875 C 17.667969 12.070312 17.90625 11.722656 18.042969 11.34375 C 18.238281 10.773438 17.96875 10.46875 17.363281 10.488281 C 16.34375 10.519531 15.699219 11.660156 16.15625 12.550781 C 16.238281 12.703125 16.25 12.957031 16.175781 13.089844 C 15.8125 13.773438 15.417969 14.445312 14.980469 15.089844 C 14.894531 15.335938 14.605469 15.507812 14.363281 15.703125 C 14.28125 15.40625 14.113281 15.109375 14.113281 14.8125 C 14.105469 13.773438 14.144531 12.742188 14.1875 11.703125 C 14.199219 11.324219 14.0625 11.070312 13.738281 10.867188 C 13.023438 10.4375 12.480469 10.457031 11.980469 11.121094 C 11.574219 11.652344 11.292969 12.273438 10.992188 12.867188 C 10.84375 13.128906 10.78125 13.40625 10.667969 13.683594 C 10.636719 13.671875 10.59375 13.671875 10.554688 13.660156 C 10.554688 13.507812 10.554688 13.34375 10.554688 13.203125 C 10.5625 12.527344 10.574219 11.855469 10.574219 11.191406 C 10.574219 10.835938 10.148438 10.570312 9.65625 10.582031 C 9.25 10.589844 9.324219 10.898438 9.324219 11.121094 C 9.3125 12.671875 9.3125 14.222656 9.304688 15.761719 C 9.304688 15.945312 9.3125 16.140625 9.355469 16.335938 C 9.449219 16.824219 9.648438 16.945312 10.15625 16.957031 C 10.636719 16.964844 10.636719 16.660156 10.699219 16.335938 C 10.980469 14.863281 11.40625 13.445312 12.28125 12.183594 C 12.398438 12.007812 12.5625 11.84375 12.71875 11.683594 C 12.824219 11.925781 12.824219 12.109375 12.824219 12.292969 C 12.8125 13.46875 12.773438 14.628906 12.8125 15.804688 C 12.824219 16.242188 12.917969 16.742188 13.449219 16.914062 C 13.96875 17.089844 14.386719 16.8125 14.71875 16.464844 C 15 16.191406 15.261719 15.875 15.480469 15.546875 C 15.886719 14.945312 16.238281 14.324219 16.613281 13.710938 C 16.699219 13.570312 16.792969 13.445312 16.949219 13.222656 C 17.375 13.683594 17.800781 14.078125 18.125 14.527344 C 18.449219 14.976562 18.386719 15.578125 18.0625 15.855469 C 17.78125 16.109375 17.4375 16.046875 16.894531 15.691406 C 16.488281 15.425781 16.3125 15.457031 16.0625 15.855469 C 15.78125 16.292969 15.855469 16.527344 16.34375 16.742188 C 17.636719 17.3125 19.136719 16.9375 19.988281 15.8125 C 20.238281 15.488281 20.4375 15.128906 20.699219 14.742188 C 20.8125 15.152344 20.886719 15.496094 21 15.835938 C 21.199219 16.40625 21.542969 16.84375 22.207031 16.9375 C 22.863281 17.027344 23.261719 16.621094 23.605469 16.160156 C 23.769531 15.925781 23.894531 15.691406 24.0625 15.40625 C 24.707031 17.3125 26.542969 17.464844 27.699219 15.8125 C 28.46875 17.273438 29.1875 17.332031 30.488281 16.046875 C 31.65625 17.253906 31.96875 17.261719 33.699219 16.148438 C 33.71875 16.171875 33.75 16.179688 33.761719 16.210938 C 33.84375 16.507812 33.6875 16.703125 33.488281 16.894531 C 32.75 17.621094 31.917969 18.304688 31.300781 19.140625 C 30.480469 20.273438 31.21875 21.546875 32.644531 21.597656 C 33.199219 21.617188 33.667969 21.433594 34.074219 21.078125 C 34.511719 20.699219 34.769531 20.210938 34.8125 19.667969 C 34.917969 18.722656 34.917969 17.75 35 16.804688 C 35.019531 16.539062 35.105469 16.222656 35.269531 16.019531 C 36.082031 14.996094 36.761719 13.90625 37.25 12.710938 C 37.519531 12.070312 37.792969 11.9375 38.542969 12.171875 C 38.519531 12.324219 38.480469 12.46875 38.46875 12.632812 C 38.40625 13.355469 38.3125 14.078125 38.300781 14.804688 C 38.292969 15.386719 38.457031 15.9375 38.84375 16.386719 C 39.519531 17.171875 40.5 17.148438 41.136719 16.335938 C 41.207031 16.253906 41.28125 16.171875 41.375 16.058594 C 41.800781 16.722656 42.355469 17.039062 43.125 16.9375 C 43.855469 16.832031 44.300781 16.34375 44.738281 15.753906 C 44.96875 16.386719 45.292969 16.824219 45.949219 16.945312 C 46.632812 17.058594 47.0625 16.703125 47.332031 16.148438 C 47.5 16.425781 47.570312 16.730469 47.757812 16.84375 C 48.457031 17.253906 49 16.925781 49.019531 16.160156 C 49.019531 15.957031 49.019531 15.753906 49.03125 15.546875 C 49.082031 14.527344 49.320312 13.558594 49.757812 12.632812 C 49.832031 12.488281 49.9375 12.367188 50.082031 12.160156 C 50.101562 12.367188 50.132812 12.457031 50.132812 12.539062 C 50.238281 13.570312 50.332031 14.601562 50.46875 15.628906 C 50.488281 15.863281 50.625 16.148438 50.800781 16.261719 C 51.03125 16.40625 51.351562 16.457031 51.613281 16.425781 C 51.71875 16.414062 51.820312 16.070312 51.875 15.855469 C 52.101562 14.894531 52.289062 13.925781 52.507812 12.945312 C 52.570312 12.691406 52.707031 12.457031 52.8125 12.222656 C 52.894531 12.324219 52.90625 12.417969 52.914062 12.5 C 52.9375 13.273438 52.9375 14.050781 52.988281 14.8125 C 53.019531 15.40625 53.144531 15.964844 53.539062 16.445312 C 54.21875 17.230469 55.300781 17.109375 55.71875 16.179688 C 55.875 15.824219 55.945312 15.425781 56 15.046875 C 56.101562 14.894531 55.96875 14.761719 55.90625 14.621094 Z M 27.207031 15.3125 C 27.042969 15.730469 26.78125 16.160156 26.261719 16.109375 C 25.71875 16.058594 25.582031 15.578125 25.5 15.152344 C 25.417969 14.785156 25.40625 14.394531 25.332031 13.867188 C 25.4375 13.40625 25.519531 12.773438 25.707031 12.191406 C 25.875 11.683594 26.261719 11.425781 26.65625 11.476562 C 27.167969 11.539062 27.355469 11.917969 27.4375 12.324219 C 27.667969 13.324219 27.605469 14.34375 27.207031 15.3125 Z M 33.5 15.039062 C 33.449219 15.230469 33.386719 15.46875 33.238281 15.589844 C 33 15.8125 32.71875 16.058594 32.425781 16.097656 C 32.050781 16.148438 31.863281 15.761719 31.769531 15.425781 C 31.449219 14.335938 31.511719 13.261719 31.925781 12.210938 C 32 12.039062 32.105469 11.875 32.230469 11.742188 C 32.675781 11.273438 33.34375 11.375 33.542969 11.976562 C 33.699219 12.417969 33.71875 12.894531 33.800781 13.367188 C 33.71875 13.925781 33.625 14.496094 33.5 15.039062 Z M 33.519531 20.496094 C 33.324219 20.933594 32.832031 21.117188 32.449219 20.964844 C 32.09375 20.824219 31.917969 20.433594 32.042969 19.957031 C 32.324219 18.976562 33.0625 18.304688 33.800781 17.640625 C 33.917969 18.648438 33.925781 19.597656 33.519531 20.496094 Z M 44.292969 15.160156 C 44.21875 15.414062 44.050781 15.671875 43.863281 15.863281 C 43.480469 16.28125 43 16.210938 42.738281 15.710938 C 42.613281 15.46875 42.5 15.191406 42.488281 14.925781 C 42.480469 14.171875 42.5 13.40625 42.574219 12.660156 C 42.59375 12.375 42.75 12.070312 42.925781 11.824219 C 43.34375 11.242188 44.082031 11.324219 44.332031 11.988281 C 44.5 12.4375 44.53125 12.945312 44.636719 13.457031 C 44.53125 14.027344 44.449219 14.609375 44.292969 15.160156 Z M 44.292969 15.160156 " fill-opacity="1" fill-rule="nonzero"/></g><g clip-path="url(#c1fbf5ffb0)"><path fill="#ffffff" d="M 5.0625 12.835938 C 5.242188 12.9375 5.449219 12.945312 5.65625 13.007812 C 5.6875 12.988281 5.71875 12.957031 5.75 12.925781 C 4.71875 11.101562 5.21875 9.550781 6.460938 8.121094 C 6.523438 8.132812 6.574219 8.140625 6.625 8.152344 C 6.636719 8.265625 6.648438 8.386719 6.648438 8.5 C 6.636719 11 6.636719 13.5 6.59375 15.988281 C 6.585938 16.519531 6.429688 17.046875 6.34375 17.578125 C 6.324219 17.730469 6.292969 17.863281 6.25 18.089844 C 6.855469 18.015625 7.25 17.730469 7.449219 17.3125 C 7.710938 16.742188 7.96875 16.128906 7.980469 15.527344 C 8.054688 13.007812 8.03125 10.480469 8.03125 7.949219 C 8.03125 7.785156 7.929688 7.550781 7.792969 7.480469 C 7.40625 7.222656 6.960938 7.101562 6.492188 7.355469 C 5.105469 8.113281 4.261719 9.265625 4.023438 10.804688 C 3.898438 11.691406 4.273438 12.386719 5.0625 12.835938 Z M 5.0625 12.835938 " fill-opacity="1" fill-rule="nonzero"/></g></svg>