<svg xmlns="http://www.w3.org/2000/svg" xmlns:xlink="http://www.w3.org/1999/xlink" width="80" zoomAndPan="magnify" viewBox="0 0 60 60" height="80" preserveAspectRatio="xMidYMid meet" version="1.0"><defs><clipPath id="5334b815e8"><path d="M 1.386719 6 L 58.386719 6 L 58.386719 54 L 1.386719 54 Z M 1.386719 6 " clip-rule="nonzero"/></clipPath><clipPath id="43f6b97dfb"><path d="M 1.386719 9 L 58.386719 9 L 58.386719 54 L 1.386719 54 Z M 1.386719 9 " clip-rule="nonzero"/></clipPath></defs><g clip-path="url(#5334b815e8)"><path fill="#ffffff" d="M 14.589844 28.785156 L 25.117188 28.785156 C 25.503906 29.019531 25.953125 29.15625 26.4375 29.15625 C 26.917969 29.15625 27.375 29.023438 27.765625 28.785156 L 29.917969 28.785156 C 29.921875 28.789062 29.921875 28.789062 29.921875 28.792969 L 34.554688 33.441406 C 34.570312 33.460938 34.59375 33.46875 34.621094 33.46875 C 34.632812 33.46875 34.644531 33.46875 34.65625 33.460938 C 34.691406 33.449219 34.710938 33.414062 34.710938 33.375 L 34.710938 28.785156 L 36.09375 28.785156 L 36.09375 30.53125 C 36.09375 30.582031 36.136719 30.625 36.1875 30.625 L 37.742188 30.625 C 37.867188 31.238281 38.105469 31.8125 38.449219 32.339844 L 37.351562 33.445312 C 37.332031 33.460938 37.324219 33.484375 37.324219 33.507812 C 37.324219 33.535156 37.332031 33.558594 37.351562 33.574219 L 38.648438 34.878906 C 38.683594 34.914062 38.746094 34.914062 38.78125 34.878906 L 39.878906 33.777344 C 40.402344 34.121094 40.976562 34.359375 41.589844 34.488281 L 41.589844 36.046875 C 41.589844 36.097656 41.632812 36.140625 41.683594 36.140625 L 43.519531 36.140625 C 43.570312 36.140625 43.613281 36.097656 43.613281 36.046875 L 43.613281 34.488281 C 44.226562 34.359375 44.800781 34.121094 45.324219 33.777344 L 46.421875 34.878906 C 46.457031 34.917969 46.515625 34.917969 46.554688 34.878906 L 47.851562 33.574219 C 47.890625 33.539062 47.890625 33.480469 47.851562 33.445312 L 46.753906 32.339844 C 47.097656 31.816406 47.335938 31.238281 47.460938 30.625 L 49.015625 30.625 C 49.066406 30.625 49.109375 30.582031 49.109375 30.53125 L 49.109375 28.6875 C 49.109375 28.632812 49.066406 28.59375 49.015625 28.59375 L 47.460938 28.59375 C 47.335938 27.976562 47.097656 27.402344 46.753906 26.875 L 47.851562 25.773438 C 47.890625 25.734375 47.890625 25.675781 47.851562 25.640625 L 46.554688 24.335938 C 46.515625 24.300781 46.457031 24.300781 46.421875 24.335938 L 45.324219 25.4375 C 44.800781 25.09375 44.226562 24.855469 43.613281 24.726562 L 43.613281 23.167969 C 43.613281 23.117188 43.570312 23.074219 43.519531 23.074219 L 41.683594 23.074219 C 41.632812 23.074219 41.589844 23.117188 41.589844 23.167969 L 41.589844 24.726562 C 40.980469 24.855469 40.410156 25.089844 39.890625 25.433594 L 39.890625 16.492188 C 40.597656 16.03125 41.066406 15.230469 41.066406 14.324219 C 41.066406 13.390625 40.578125 12.550781 39.792969 12.089844 C 39.679688 11.902344 39.472656 11.777344 39.242188 11.777344 L 34.632812 11.777344 L 34.632812 9.527344 C 34.632812 9.472656 34.589844 9.433594 34.539062 9.433594 L 30.273438 9.433594 L 30.273438 7.875 C 30.742188 7.824219 31.109375 7.429688 31.109375 6.949219 C 31.109375 6.429688 30.6875 6.011719 30.175781 6.011719 C 29.660156 6.011719 29.238281 6.429688 29.238281 6.949219 C 29.238281 7.433594 29.613281 7.832031 30.085938 7.875 L 30.085938 9.433594 L 24.6875 9.433594 L 24.6875 7.875 C 25.15625 7.824219 25.523438 7.429688 25.523438 6.949219 C 25.523438 6.429688 25.105469 6.011719 24.589844 6.011719 C 24.074219 6.011719 23.65625 6.429688 23.65625 6.949219 C 23.65625 7.433594 24.027344 7.832031 24.5 7.875 L 24.5 9.433594 L 22.875 9.433594 L 22.875 9.378906 L 22.746094 9.441406 L 19.980469 10.699219 C 19.632812 10.859375 19.410156 11.207031 19.410156 11.589844 L 19.410156 11.777344 L 14.589844 11.777344 C 14.230469 11.777344 13.941406 12.070312 13.941406 12.429688 L 13.941406 28.132812 C 13.941406 28.492188 14.230469 28.785156 14.589844 28.785156 Z M 41.269531 28.269531 C 41.625 27.914062 42.097656 27.714844 42.601562 27.714844 C 43.105469 27.714844 43.578125 27.914062 43.933594 28.269531 C 44.667969 29.007812 44.667969 30.207031 43.933594 30.945312 C 43.199219 31.683594 42.003906 31.683594 41.269531 30.945312 C 40.535156 30.207031 40.535156 29.007812 41.269531 28.269531 Z M 51.207031 52.730469 L 44.90625 52.730469 C 45.011719 52.664062 45.09375 52.5625 45.132812 52.441406 L 48.617188 42.394531 C 48.660156 42.28125 48.640625 42.15625 48.570312 42.058594 C 48.5 41.957031 48.390625 41.902344 48.265625 41.902344 L 35.175781 41.902344 C 34.964844 41.902344 34.777344 42.035156 34.707031 42.234375 L 32.105469 49.742188 C 32.085938 49.734375 32.070312 49.726562 32.050781 49.71875 L 31.972656 49.6875 C 31.304688 49.414062 30.1875 48.957031 29.710938 49.140625 C 29.273438 49.308594 28.03125 50.132812 27.820312 50.273438 L 21.46875 49.300781 C 21.105469 48.703125 17.328125 42.515625 15.980469 41.378906 C 15.644531 41.089844 15.21875 40.847656 14.769531 40.648438 C 14.753906 39.804688 14.644531 38.867188 14.515625 38.011719 C 14.703125 37.890625 14.867188 37.742188 15.011719 37.5625 C 15.527344 36.910156 15.414062 36.148438 15.324219 35.53125 C 15.292969 35.308594 15.261719 35.097656 15.265625 34.921875 C 15.269531 34.695312 15.320312 34.40625 15.382812 34.070312 C 15.394531 33.992188 15.410156 33.910156 15.425781 33.828125 C 15.660156 33.550781 15.851562 33.292969 15.914062 33.125 C 16.023438 32.832031 16.28125 31.808594 15 31.007812 C 13.996094 30.382812 11.007812 30.226562 9.765625 31.515625 C 9.003906 32.300781 8.84375 33.25 8.691406 34.167969 C 8.589844 34.769531 8.496094 35.339844 8.242188 35.863281 C 7.726562 36.9375 7.34375 37.269531 6.941406 37.617188 C 6.605469 37.90625 6.261719 38.203125 5.832031 38.917969 C 5.34375 39.726562 5.21875 40.617188 5.472656 41.488281 C 5.640625 42.078125 5.988281 42.652344 6.449219 43.136719 C 6.09375 46.75 6.089844 53.535156 6.089844 53.898438 L 6.089844 53.992188 L 16.976562 53.992188 L 16.976562 53.898438 L 51.207031 53.898438 C 51.527344 53.898438 51.789062 53.636719 51.789062 53.3125 C 51.789062 52.992188 51.527344 52.730469 51.207031 52.730469 Z M 16.976562 52.730469 L 16.976562 51.199219 C 17.25 51.664062 17.835938 52.460938 18.738281 52.730469 Z M 31.371094 51.851562 L 31.234375 51.851562 C 31.265625 51.824219 31.292969 51.796875 31.320312 51.773438 C 31.34375 51.789062 31.363281 51.804688 31.382812 51.816406 Z M 58.371094 32.570312 L 57.785156 31.082031 C 57.765625 31.035156 57.710938 31.011719 57.664062 31.03125 L 56.417969 31.527344 C 56.121094 31.078125 55.75 30.695312 55.308594 30.382812 L 55.839844 29.148438 C 55.859375 29.101562 55.839844 29.046875 55.792969 29.027344 L 54.328125 28.390625 C 54.304688 28.382812 54.277344 28.382812 54.253906 28.390625 C 54.234375 28.398438 54.214844 28.417969 54.203125 28.441406 L 53.675781 29.675781 C 53.148438 29.566406 52.613281 29.558594 52.082031 29.652344 L 51.589844 28.402344 C 51.578125 28.378906 51.5625 28.363281 51.539062 28.351562 C 51.515625 28.34375 51.492188 28.339844 51.46875 28.351562 L 49.988281 28.941406 C 49.9375 28.960938 49.914062 29.015625 49.933594 29.0625 L 50.429688 30.3125 C 49.980469 30.609375 49.597656 30.984375 49.289062 31.425781 L 48.058594 30.894531 C 48.035156 30.882812 48.011719 30.882812 47.988281 30.894531 C 47.964844 30.902344 47.945312 30.917969 47.9375 30.941406 L 47.304688 32.414062 C 47.296875 32.433594 47.296875 32.460938 47.304688 32.484375 C 47.3125 32.507812 47.332031 32.523438 47.355469 32.535156 L 48.582031 33.066406 C 48.476562 33.597656 48.46875 34.132812 48.558594 34.664062 L 47.316406 35.160156 C 47.269531 35.179688 47.246094 35.234375 47.265625 35.28125 L 47.851562 36.769531 C 47.871094 36.816406 47.925781 36.839844 47.972656 36.820312 L 49.21875 36.324219 C 49.515625 36.777344 49.886719 37.160156 50.328125 37.472656 L 49.796875 38.707031 C 49.789062 38.726562 49.785156 38.753906 49.796875 38.777344 C 49.804688 38.800781 49.824219 38.816406 49.847656 38.828125 L 51.308594 39.460938 C 51.355469 39.480469 51.410156 39.460938 51.433594 39.414062 L 51.960938 38.179688 C 52.488281 38.285156 53.023438 38.292969 53.554688 38.203125 L 54.046875 39.449219 C 54.058594 39.472656 54.074219 39.492188 54.097656 39.5 C 54.109375 39.507812 54.121094 39.507812 54.132812 39.507812 C 54.144531 39.507812 54.15625 39.507812 54.167969 39.503906 L 55.648438 38.910156 C 55.699219 38.890625 55.722656 38.839844 55.703125 38.789062 L 55.207031 37.542969 C 55.65625 37.242188 56.039062 36.871094 56.347656 36.429688 L 57.578125 36.960938 C 57.625 36.980469 57.679688 36.957031 57.699219 36.910156 L 58.332031 35.441406 C 58.351562 35.394531 58.332031 35.339844 58.285156 35.320312 L 57.054688 34.785156 C 57.160156 34.257812 57.167969 33.71875 57.078125 33.1875 L 58.320312 32.691406 C 58.34375 32.683594 58.363281 32.664062 58.371094 32.644531 C 58.382812 32.621094 58.382812 32.59375 58.371094 32.570312 Z M 54.308594 34.570312 C 54.136719 34.972656 53.820312 35.28125 53.417969 35.441406 C 53.015625 35.601562 52.574219 35.59375 52.175781 35.421875 C 51.777344 35.25 51.46875 34.933594 51.308594 34.527344 C 51.148438 34.125 51.15625 33.679688 51.328125 33.28125 C 51.5 32.882812 51.816406 32.574219 52.21875 32.410156 C 52.414062 32.335938 52.617188 32.296875 52.820312 32.296875 C 53.035156 32.296875 53.253906 32.339844 53.460938 32.429688 C 54.28125 32.785156 54.664062 33.746094 54.308594 34.570312 Z M 22.210938 43.910156 L 22.210938 41.078125 L 21.007812 41.078125 C 20.65625 41.078125 20.367188 40.789062 20.367188 40.433594 L 20.367188 35.546875 C 20.367188 35.191406 20.65625 34.902344 21.007812 34.902344 L 34.21875 34.902344 C 34.574219 34.902344 34.859375 35.191406 34.859375 35.546875 L 34.859375 40.433594 C 34.859375 40.789062 34.574219 41.078125 34.21875 41.078125 L 25.03125 41.078125 Z M 7.191406 20.289062 C 7.183594 20.273438 7.179688 20.257812 7.183594 20.242188 C 7.183594 20.238281 7.183594 20.234375 7.183594 20.230469 C 7.183594 20.222656 7.183594 20.21875 7.1875 20.210938 C 7.191406 20.203125 7.195312 20.195312 7.203125 20.191406 C 7.203125 20.1875 7.203125 20.1875 7.203125 20.183594 C 7.203125 20.183594 7.207031 20.183594 7.207031 20.183594 C 7.21875 20.171875 7.230469 20.164062 7.246094 20.160156 C 7.25 20.15625 7.253906 20.15625 7.257812 20.15625 C 7.277344 20.152344 7.292969 20.152344 7.308594 20.160156 L 11.097656 21.695312 C 11.128906 21.707031 11.152344 21.738281 11.15625 21.773438 C 11.15625 21.808594 11.140625 21.84375 11.109375 21.863281 L 7.566406 23.902344 C 7.550781 23.910156 7.535156 23.914062 7.519531 23.914062 C 7.496094 23.914062 7.472656 23.90625 7.457031 23.890625 C 7.425781 23.863281 7.417969 23.820312 7.433594 23.785156 L 8.164062 22.015625 L 7.191406 20.292969 C 7.191406 20.292969 7.191406 20.289062 7.191406 20.289062 Z M 5.386719 34.171875 C 3.300781 32.820312 1.386719 29.269531 1.945312 26.542969 C 2.648438 23.101562 6.382812 22.25 6.421875 22.242188 C 6.46875 22.230469 6.519531 22.265625 6.53125 22.316406 C 6.542969 22.363281 6.511719 22.414062 6.460938 22.425781 C 6.421875 22.433594 2.804688 23.261719 2.125 26.582031 C 1.582031 29.238281 3.453125 32.695312 5.488281 34.015625 C 5.53125 34.042969 5.542969 34.101562 5.515625 34.144531 C 5.496094 34.171875 5.46875 34.1875 5.4375 34.1875 C 5.417969 34.1875 5.402344 34.183594 5.386719 34.171875 Z M 5.386719 34.171875 " fill-opacity="1" fill-rule="nonzero"/></g><path fill="#d8d0c5" d="M 29.917969 28.785156 L 27.765625 28.785156 C 27.78125 28.777344 27.796875 28.765625 27.808594 28.757812 L 34.539062 28.757812 C 34.589844 28.757812 34.628906 28.714844 34.628906 28.664062 L 34.628906 23.535156 C 35.671875 23.339844 37.25 22.820312 38.371094 21.433594 C 39.226562 20.378906 39.570312 19.140625 39.703125 18.152344 C 39.800781 17.429688 39.78125 16.84375 39.765625 16.570312 C 39.808594 16.546875 39.847656 16.519531 39.890625 16.492188 L 39.890625 25.433594 C 39.886719 25.4375 39.882812 25.4375 39.878906 25.441406 L 39.703125 25.261719 L 38.78125 24.335938 C 38.746094 24.300781 38.683594 24.300781 38.648438 24.335938 L 37.351562 25.640625 C 37.3125 25.675781 37.3125 25.734375 37.351562 25.773438 L 38.449219 26.875 C 38.105469 27.402344 37.867188 27.976562 37.742188 28.59375 L 36.1875 28.59375 C 36.175781 28.59375 36.164062 28.59375 36.15625 28.597656 C 36.121094 28.609375 36.09375 28.644531 36.09375 28.6875 L 36.09375 28.785156 L 34.710938 28.785156 L 34.710938 33.375 C 34.710938 33.414062 34.691406 33.449219 34.65625 33.460938 C 34.644531 33.46875 34.632812 33.46875 34.621094 33.46875 C 34.59375 33.46875 34.570312 33.460938 34.554688 33.441406 L 29.921875 28.792969 C 29.921875 28.789062 29.921875 28.789062 29.917969 28.785156 Z M 34.628906 18.871094 L 34.628906 20.820312 C 35.089844 20.652344 35.644531 20.375 36.191406 19.914062 C 37.25 19.015625 37.308594 17.222656 37.296875 16.621094 C 36.46875 16.1875 35.902344 15.320312 35.902344 14.324219 C 35.902344 13.296875 36.492188 12.386719 37.417969 11.964844 C 37.457031 11.949219 37.496094 11.929688 37.535156 11.914062 L 37.664062 11.863281 L 37.664062 14.324219 C 37.664062 14.777344 38.03125 15.144531 38.484375 15.144531 C 38.933594 15.144531 39.304688 14.777344 39.304688 14.324219 L 39.304688 11.863281 L 39.429688 11.914062 C 39.558594 11.964844 39.675781 12.023438 39.792969 12.089844 C 39.675781 11.902344 39.472656 11.777344 39.242188 11.777344 L 34.628906 11.777344 L 34.628906 15.984375 C 34.628906 16.035156 34.589844 16.078125 34.539062 16.078125 L 28.472656 16.078125 L 28.472656 18.777344 L 34.539062 18.777344 C 34.589844 18.777344 34.628906 18.820312 34.628906 18.871094 Z M 22.875 18.777344 L 24.5 18.777344 L 24.5 16.078125 L 20.382812 16.078125 C 19.847656 16.078125 19.410156 15.640625 19.410156 15.101562 L 19.410156 11.777344 L 14.589844 11.777344 C 14.230469 11.777344 13.941406 12.070312 13.941406 12.429688 L 13.941406 28.132812 C 13.941406 28.492188 14.230469 28.785156 14.589844 28.785156 L 20.382812 28.785156 C 20.167969 28.785156 19.976562 28.714844 19.816406 28.597656 C 19.570312 28.421875 19.410156 28.132812 19.410156 27.808594 L 19.410156 27.734375 C 18.207031 27.605469 17.277344 27.074219 16.832031 26.246094 C 16.425781 25.484375 16.484375 24.566406 17 23.730469 C 17.621094 22.726562 18.59375 22.152344 19.410156 21.832031 L 19.410156 20.933594 C 19.410156 20.550781 19.632812 20.203125 19.980469 20.046875 L 22.746094 18.785156 L 22.875 18.726562 Z M 22.875 28.757812 L 22.875 28.785156 L 25.117188 28.785156 C 25.101562 28.777344 25.085938 28.765625 25.070312 28.757812 Z M 48.570312 42.058594 C 48.5 41.957031 48.390625 41.902344 48.265625 41.902344 L 35.175781 41.902344 C 34.964844 41.902344 34.777344 42.035156 34.707031 42.234375 L 32.105469 49.742188 C 32.164062 49.765625 32.222656 49.792969 32.273438 49.816406 C 32.339844 49.851562 32.398438 49.882812 32.449219 49.917969 L 35.003906 42.492188 C 35.015625 42.453125 35.050781 42.429688 35.089844 42.429688 L 47.859375 42.429688 C 47.890625 42.429688 47.917969 42.441406 47.9375 42.46875 C 47.953125 42.492188 47.957031 42.523438 47.949219 42.550781 L 44.875 51.488281 C 44.863281 51.527344 44.828125 51.550781 44.789062 51.550781 L 33.53125 51.550781 C 33.609375 51.730469 33.636719 51.867188 33.589844 51.980469 C 33.550781 52.074219 33.464844 52.136719 33.320312 52.175781 C 33.195312 52.210938 33.035156 52.15625 32.863281 52.050781 C 32.789062 52.097656 32.699219 52.121094 32.589844 52.121094 C 32.5 52.121094 32.402344 52.105469 32.296875 52.070312 C 32.226562 52.046875 32.136719 51.992188 32.042969 51.921875 C 31.984375 51.941406 31.917969 51.953125 31.84375 51.953125 C 31.753906 51.953125 31.65625 51.9375 31.550781 51.902344 C 31.503906 51.886719 31.445312 51.855469 31.382812 51.816406 L 31.371094 51.851562 L 31.234375 51.851562 C 31.171875 51.910156 31.101562 51.972656 31.027344 52.039062 C 31.023438 52.039062 31.023438 52.042969 31.019531 52.046875 C 30.691406 52.34375 30.371094 52.527344 30.121094 52.636719 C 30.03125 52.675781 29.949219 52.707031 29.878906 52.730469 L 44.90625 52.730469 C 45.011719 52.664062 45.09375 52.5625 45.132812 52.441406 L 48.617188 42.394531 C 48.660156 42.28125 48.640625 42.15625 48.570312 42.058594 Z M 44.207031 44.738281 C 44.246094 44.738281 44.28125 44.710938 44.292969 44.675781 L 44.699219 43.492188 C 44.710938 43.460938 44.707031 43.429688 44.6875 43.40625 C 44.671875 43.382812 44.644531 43.367188 44.613281 43.367188 L 39.429688 43.367188 C 39.386719 43.367188 39.351562 43.390625 39.339844 43.429688 L 38.933594 44.613281 C 38.921875 44.640625 38.929688 44.671875 38.945312 44.699219 C 38.964844 44.722656 38.992188 44.738281 39.019531 44.738281 Z M 38.6875 45.226562 L 38.265625 46.449219 C 38.257812 46.480469 38.261719 46.511719 38.277344 46.535156 C 38.296875 46.558594 38.324219 46.574219 38.355469 46.574219 L 43.539062 46.574219 C 43.578125 46.574219 43.613281 46.550781 43.628906 46.511719 L 44.046875 45.285156 C 44.058594 45.257812 44.054688 45.226562 44.035156 45.203125 C 44.019531 45.175781 43.992188 45.164062 43.960938 45.164062 L 38.777344 45.164062 C 38.738281 45.164062 38.699219 45.1875 38.6875 45.226562 Z M 38.058594 47.117188 L 37.636719 48.339844 C 37.625 48.371094 37.632812 48.402344 37.648438 48.425781 C 37.667969 48.449219 37.695312 48.464844 37.726562 48.464844 L 42.910156 48.464844 C 42.949219 48.464844 42.984375 48.4375 42.996094 48.402344 L 43.417969 47.175781 C 43.429688 47.148438 43.421875 47.117188 43.40625 47.09375 C 43.390625 47.066406 43.359375 47.054688 43.332031 47.054688 L 38.144531 47.054688 C 38.105469 47.054688 38.070312 47.078125 38.058594 47.117188 Z M 25.652344 26.34375 C 25.632812 26.402344 25.625 26.464844 25.621094 26.53125 L 32.90625 26.53125 C 32.957031 26.53125 33 26.488281 33 26.4375 L 33 20.949219 C 33 20.898438 32.957031 20.855469 32.90625 20.855469 L 24.59375 20.855469 C 24.542969 20.855469 24.5 20.898438 24.5 20.949219 L 24.5 24.855469 C 24.558594 24.785156 24.621094 24.722656 24.6875 24.664062 C 25.148438 24.234375 25.761719 23.972656 26.4375 23.972656 C 27.503906 23.972656 28.445312 24.617188 28.835938 25.613281 L 28.886719 25.738281 L 26.4375 25.738281 C 26.0625 25.738281 25.746094 25.996094 25.652344 26.34375 Z M 25.652344 26.34375 " fill-opacity="1" fill-rule="nonzero"/><path fill="#f58e6d" d="M 38.605469 43.40625 C 38.621094 43.429688 38.625 43.460938 38.617188 43.492188 L 36.1875 50.546875 C 36.175781 50.585938 36.140625 50.613281 36.101562 50.613281 L 33.160156 50.613281 C 33.128906 50.613281 33.101562 50.597656 33.082031 50.574219 C 33.066406 50.546875 33.0625 50.515625 33.070312 50.488281 L 35.5 43.429688 C 35.511719 43.390625 35.546875 43.367188 35.585938 43.367188 L 38.527344 43.367188 C 38.558594 43.367188 38.585938 43.382812 38.605469 43.40625 Z M 44.699219 49.246094 C 44.683594 49.21875 44.65625 49.207031 44.625 49.207031 L 39.441406 49.207031 C 39.402344 49.207031 39.367188 49.230469 39.351562 49.269531 L 38.933594 50.488281 C 38.921875 50.515625 38.929688 50.546875 38.945312 50.574219 C 38.964844 50.597656 38.992188 50.613281 39.019531 50.613281 L 44.207031 50.613281 C 44.246094 50.613281 44.28125 50.585938 44.292969 50.550781 L 44.714844 49.328125 C 44.722656 49.300781 44.71875 49.269531 44.699219 49.246094 Z M 28.789062 52.632812 L 27.953125 50.410156 L 27.90625 50.289062 L 27.820312 50.273438 L 21.46875 49.300781 C 21.105469 48.703125 17.328125 42.515625 15.980469 41.378906 C 15.644531 41.089844 15.21875 40.847656 14.769531 40.648438 C 14.773438 40.71875 14.773438 40.789062 14.773438 40.855469 C 14.777344 41.636719 14.695312 42.316406 14.472656 42.738281 C 13.691406 44.222656 12.140625 44.714844 10.652344 44.714844 C 9.519531 44.714844 8.421875 44.429688 7.726562 44.082031 C 7.320312 43.878906 6.945312 43.613281 6.621094 43.304688 C 6.5625 43.25 6.503906 43.195312 6.449219 43.136719 C 6.09375 46.75 6.089844 53.535156 6.089844 53.898438 L 6.089844 53.992188 L 16.976562 53.992188 L 16.976562 51.199219 C 17.25 51.660156 17.835938 52.460938 18.738281 52.730469 C 18.933594 52.789062 19.144531 52.824219 19.367188 52.824219 L 28.863281 52.824219 L 28.859375 52.820312 Z M 22.875 9.433594 L 22.875 9.378906 L 22.746094 9.441406 C 22.757812 9.433594 22.769531 9.433594 22.785156 9.433594 Z M 20.382812 16.078125 L 22.785156 16.078125 C 22.730469 16.078125 22.691406 16.035156 22.691406 15.984375 L 22.691406 9.527344 C 22.691406 9.488281 22.714844 9.453125 22.746094 9.441406 L 19.980469 10.699219 C 19.632812 10.859375 19.410156 11.207031 19.410156 11.589844 L 19.410156 15.101562 C 19.410156 15.640625 19.847656 16.078125 20.382812 16.078125 Z M 20.875 21.441406 C 20.878906 21.441406 20.882812 21.441406 20.886719 21.441406 C 21.523438 21.441406 21.695312 22.132812 21.695312 22.542969 C 21.695312 23.503906 21.214844 23.84375 21.195312 23.859375 C 21.191406 23.863281 20.941406 24.058594 20.019531 24.429688 C 19.832031 24.503906 19.683594 24.605469 19.597656 24.714844 C 19.519531 24.808594 19.484375 24.90625 19.5 25 C 19.511719 25.054688 19.542969 25.109375 19.597656 25.164062 C 19.710938 25.273438 19.933594 25.367188 20.308594 25.378906 C 20.753906 25.386719 21.761719 25.394531 22.691406 25.402344 L 22.691406 18.871094 C 22.691406 18.832031 22.714844 18.796875 22.746094 18.785156 L 19.980469 20.046875 C 19.632812 20.203125 19.410156 20.550781 19.410156 20.933594 L 19.410156 21.832031 C 19.472656 21.804688 19.535156 21.785156 19.597656 21.761719 C 20.3125 21.503906 20.863281 21.441406 20.875 21.441406 Z M 22.785156 18.777344 L 22.875 18.777344 L 22.875 18.726562 L 22.746094 18.785156 C 22.757812 18.78125 22.769531 18.777344 22.785156 18.777344 Z M 19.816406 28.597656 C 19.976562 28.714844 20.167969 28.785156 20.382812 28.785156 L 22.875 28.785156 L 22.875 28.757812 L 22.785156 28.757812 C 22.730469 28.757812 22.691406 28.714844 22.691406 28.664062 L 22.691406 27.800781 C 22.652344 27.800781 22.617188 27.800781 22.578125 27.800781 C 21.777344 27.800781 20.816406 27.792969 19.820312 27.761719 C 19.746094 27.757812 19.671875 27.753906 19.597656 27.75 C 19.535156 27.746094 19.472656 27.738281 19.410156 27.734375 L 19.410156 27.808594 C 19.410156 28.132812 19.570312 28.421875 19.816406 28.597656 Z M 24.5 7.875 L 24.5 9.433594 L 24.6875 9.433594 L 24.6875 7.875 C 25.15625 7.824219 25.523438 7.429688 25.523438 6.949219 C 25.523438 6.429688 25.105469 6.011719 24.589844 6.011719 C 24.074219 6.011719 23.65625 6.429688 23.65625 6.949219 C 23.65625 7.433594 24.027344 7.832031 24.5 7.875 Z M 30.085938 7.875 L 30.085938 9.433594 L 30.273438 9.433594 L 30.273438 7.875 C 30.742188 7.824219 31.109375 7.429688 31.109375 6.949219 C 31.109375 6.429688 30.6875 6.011719 30.175781 6.011719 C 29.660156 6.011719 29.238281 6.429688 29.238281 6.949219 C 29.238281 7.433594 29.613281 7.832031 30.085938 7.875 Z M 24.6875 16.078125 L 24.6875 16.855469 L 28.285156 16.855469 L 28.285156 16.078125 L 28.472656 16.078125 L 28.472656 18.777344 L 24.5 18.777344 L 24.5 16.078125 C 24.5 16.078125 24.6875 16.078125 24.6875 16.078125 Z M 28.285156 17.976562 L 24.6875 17.976562 L 24.6875 18.757812 L 28.285156 18.757812 Z M 24.6875 17.042969 L 24.6875 17.792969 L 28.285156 17.792969 L 28.285156 17.042969 Z M 26.800781 13.542969 C 27.195312 13.542969 27.519531 13.21875 27.519531 12.820312 C 27.519531 12.417969 27.195312 12.09375 26.800781 12.09375 C 26.402344 12.09375 26.078125 12.417969 26.078125 12.820312 C 26.078125 13.21875 26.402344 13.542969 26.800781 13.542969 Z M 30.523438 13.542969 C 30.921875 13.542969 31.242188 13.21875 31.242188 12.820312 C 31.242188 12.417969 30.921875 12.09375 30.523438 12.09375 C 30.125 12.09375 29.800781 12.417969 29.800781 12.820312 C 29.800781 13.21875 30.125 13.542969 30.523438 13.542969 Z M 24.8125 10.996094 L 32.507812 10.996094 C 32.78125 10.996094 33 11.21875 33 11.492188 L 33 14.019531 C 33 14.289062 32.78125 14.511719 32.507812 14.511719 L 24.8125 14.511719 C 24.542969 14.511719 24.320312 14.289062 24.320312 14.019531 L 24.320312 11.492188 C 24.320312 11.21875 24.542969 10.996094 24.8125 10.996094 Z M 29.613281 12.820312 C 29.613281 13.320312 30.023438 13.730469 30.523438 13.730469 C 31.023438 13.730469 31.429688 13.320312 31.429688 12.820312 C 31.429688 12.316406 31.023438 11.90625 30.523438 11.90625 C 30.023438 11.90625 29.613281 12.316406 29.613281 12.820312 Z M 25.890625 12.820312 C 25.890625 13.320312 26.296875 13.730469 26.800781 13.730469 C 27.300781 13.730469 27.707031 13.320312 27.707031 12.820312 C 27.707031 12.316406 27.300781 11.90625 26.800781 11.90625 C 26.296875 11.90625 25.890625 12.316406 25.890625 12.820312 Z M 24.128906 25.410156 C 24.097656 25.472656 24.070312 25.53125 24.042969 25.597656 C 23.921875 25.894531 23.855469 26.222656 23.855469 26.5625 C 23.855469 26.933594 23.933594 27.285156 24.074219 27.601562 C 24.101562 27.664062 24.128906 27.726562 24.164062 27.789062 C 24.324219 28.089844 24.546875 28.355469 24.808594 28.570312 C 24.890625 28.640625 24.980469 28.699219 25.070312 28.757812 C 25.085938 28.765625 25.101562 28.777344 25.117188 28.785156 C 25.503906 29.019531 25.953125 29.15625 26.4375 29.15625 C 26.917969 29.15625 27.375 29.023438 27.765625 28.785156 C 27.78125 28.777344 27.796875 28.765625 27.808594 28.757812 C 27.898438 28.703125 27.988281 28.640625 28.070312 28.570312 C 28.402344 28.296875 28.671875 27.9375 28.835938 27.511719 L 28.886719 27.386719 L 26.4375 27.386719 C 25.984375 27.386719 25.617188 27.015625 25.617188 26.5625 C 25.617188 26.550781 25.621094 26.542969 25.621094 26.53125 C 25.625 26.464844 25.632812 26.402344 25.652344 26.34375 C 25.746094 25.996094 26.0625 25.738281 26.4375 25.738281 L 28.886719 25.738281 L 28.835938 25.613281 C 28.445312 24.613281 27.503906 23.972656 26.4375 23.972656 C 25.761719 23.972656 25.148438 24.234375 24.6875 24.664062 C 24.621094 24.722656 24.558594 24.785156 24.5 24.855469 C 24.355469 25.023438 24.230469 25.207031 24.128906 25.410156 Z M 37.296875 16.621094 C 37.355469 16.652344 37.417969 16.683594 37.484375 16.710938 C 37.792969 16.84375 38.128906 16.914062 38.484375 16.914062 C 38.878906 16.914062 39.25 16.824219 39.582031 16.664062 C 39.644531 16.636719 39.707031 16.605469 39.765625 16.570312 C 39.808594 16.546875 39.847656 16.519531 39.890625 16.492188 C 40.597656 16.03125 41.066406 15.230469 41.066406 14.324219 C 41.066406 13.390625 40.574219 12.550781 39.792969 12.089844 C 39.675781 12.023438 39.558594 11.964844 39.429688 11.914062 L 39.304688 11.863281 L 39.304688 14.324219 C 39.304688 14.777344 38.933594 15.144531 38.484375 15.144531 C 38.03125 15.144531 37.664062 14.777344 37.664062 14.324219 L 37.664062 11.863281 L 37.535156 11.914062 C 37.496094 11.929688 37.457031 11.949219 37.417969 11.964844 C 36.492188 12.386719 35.902344 13.296875 35.902344 14.324219 C 35.902344 15.320312 36.46875 16.1875 37.296875 16.621094 Z M 21.007812 34.902344 L 34.21875 34.902344 C 34.574219 34.902344 34.859375 35.191406 34.859375 35.546875 L 34.859375 40.433594 C 34.859375 40.789062 34.574219 41.078125 34.21875 41.078125 L 25.03125 41.078125 L 22.210938 43.910156 L 22.210938 41.078125 L 21.007812 41.078125 C 20.65625 41.078125 20.367188 40.789062 20.367188 40.433594 L 20.367188 35.546875 C 20.367188 35.191406 20.65625 34.902344 21.007812 34.902344 Z M 29.28125 38.304688 C 29.28125 38.660156 29.566406 38.945312 29.917969 38.945312 C 30.269531 38.945312 30.554688 38.660156 30.554688 38.304688 C 30.554688 37.953125 30.269531 37.667969 29.917969 37.667969 C 29.570312 37.667969 29.28125 37.953125 29.28125 38.304688 Z M 26.976562 38.304688 C 26.976562 38.660156 27.261719 38.945312 27.613281 38.945312 C 27.964844 38.945312 28.25 38.660156 28.25 38.304688 C 28.25 37.953125 27.964844 37.667969 27.613281 37.667969 C 27.261719 37.667969 26.976562 37.953125 26.976562 38.304688 Z M 24.671875 38.304688 C 24.671875 38.660156 24.957031 38.945312 25.308594 38.945312 C 25.660156 38.945312 25.945312 38.660156 25.945312 38.304688 C 25.945312 37.953125 25.660156 37.667969 25.308594 37.667969 C 24.957031 37.667969 24.671875 37.953125 24.671875 38.304688 Z M 7.203125 20.183594 C 7.203125 20.1875 7.203125 20.1875 7.203125 20.191406 C 7.203125 20.1875 7.203125 20.1875 7.207031 20.183594 C 7.207031 20.183594 7.203125 20.183594 7.203125 20.183594 Z M 8.164062 22.015625 L 8.179688 21.972656 C 8.199219 21.925781 8.253906 21.902344 8.304688 21.921875 C 8.324219 21.933594 8.339844 21.949219 8.351562 21.96875 C 8.355469 21.976562 8.355469 21.984375 8.359375 21.996094 C 8.359375 22 8.359375 22.003906 8.359375 22.007812 C 8.359375 22.019531 8.359375 22.03125 8.351562 22.046875 L 7.710938 23.601562 L 10.847656 21.796875 L 7.238281 20.332031 C 7.21875 20.324219 7.203125 20.308594 7.191406 20.289062 C 7.191406 20.289062 7.191406 20.292969 7.191406 20.292969 Z M 8.164062 22.015625 " fill-opacity="1" fill-rule="nonzero"/><g clip-path="url(#43f6b97dfb)"><path fill="#231f20" d="M 51.207031 52.730469 L 29.878906 52.730469 C 29.949219 52.707031 30.03125 52.675781 30.121094 52.636719 C 30.371094 52.527344 30.691406 52.34375 31.019531 52.046875 C 31.023438 52.042969 31.023438 52.039062 31.027344 52.039062 C 31.101562 51.972656 31.167969 51.910156 31.234375 51.851562 C 31.265625 51.824219 31.292969 51.796875 31.320312 51.773438 C 31.34375 51.789062 31.363281 51.804688 31.382812 51.816406 C 31.445312 51.855469 31.5 51.886719 31.550781 51.902344 C 31.65625 51.9375 31.753906 51.953125 31.84375 51.953125 C 31.917969 51.953125 31.984375 51.941406 32.042969 51.921875 C 32.136719 51.992188 32.226562 52.046875 32.296875 52.070312 C 32.402344 52.105469 32.5 52.121094 32.589844 52.121094 C 32.699219 52.121094 32.789062 52.097656 32.863281 52.050781 C 33.035156 52.15625 33.195312 52.210938 33.320312 52.175781 C 33.464844 52.136719 33.550781 52.074219 33.589844 51.980469 C 33.636719 51.867188 33.609375 51.730469 33.53125 51.550781 L 44.789062 51.550781 C 44.828125 51.550781 44.863281 51.527344 44.875 51.488281 L 47.949219 42.550781 C 47.957031 42.523438 47.953125 42.492188 47.9375 42.46875 C 47.917969 42.441406 47.890625 42.429688 47.859375 42.429688 L 35.089844 42.429688 C 35.050781 42.429688 35.015625 42.453125 35.003906 42.492188 L 32.449219 49.917969 C 32.398438 49.882812 32.339844 49.851562 32.273438 49.816406 C 32.222656 49.792969 32.164062 49.765625 32.105469 49.742188 C 32.085938 49.734375 32.070312 49.726562 32.050781 49.71875 L 31.972656 49.6875 C 31.304688 49.414062 30.1875 48.957031 29.710938 49.140625 C 29.273438 49.308594 28.03125 50.132812 27.820312 50.273438 L 27.90625 50.289062 L 27.953125 50.410156 C 28.226562 50.226562 29.378906 49.464844 29.777344 49.316406 C 30.1875 49.160156 31.304688 49.613281 31.902344 49.859375 L 31.980469 49.890625 C 32.566406 50.128906 32.675781 50.332031 33 50.929688 L 33.113281 51.140625 C 33.316406 51.519531 33.46875 51.792969 33.417969 51.90625 C 33.414062 51.917969 33.394531 51.960938 33.273438 51.996094 C 33.039062 52.058594 32.398438 51.46875 32.019531 51.027344 L 31.960938 50.957031 L 31.890625 51.019531 C 31.886719 51.019531 31.570312 51.292969 30.894531 51.90625 C 30.242188 52.5 29.613281 52.609375 29.621094 52.609375 L 28.789062 52.632812 L 28.859375 52.820312 L 28.863281 52.824219 L 19.367188 52.824219 C 19.144531 52.824219 18.933594 52.789062 18.738281 52.730469 L 16.976562 52.730469 L 16.976562 53.898438 L 51.207031 53.898438 C 51.527344 53.898438 51.789062 53.636719 51.789062 53.3125 C 51.789062 52.992188 51.527344 52.730469 51.207031 52.730469 Z M 33.277344 51.050781 L 33.164062 50.839844 C 32.957031 50.464844 32.828125 50.222656 32.605469 50.035156 L 35.15625 42.613281 L 47.730469 42.613281 L 44.722656 51.363281 L 33.441406 51.363281 C 33.394531 51.269531 33.339844 51.167969 33.277344 51.050781 Z M 31.941406 51.222656 C 32.082031 51.382812 32.375 51.695312 32.675781 51.921875 C 32.585938 51.9375 32.476562 51.929688 32.355469 51.894531 C 32.214844 51.847656 31.976562 51.628906 31.75 51.390625 C 31.832031 51.316406 31.898438 51.257812 31.941406 51.222656 Z M 31.609375 51.515625 C 31.691406 51.601562 31.777344 51.6875 31.859375 51.765625 C 31.785156 51.765625 31.699219 51.753906 31.605469 51.726562 C 31.566406 51.710938 31.515625 51.683594 31.464844 51.644531 C 31.515625 51.597656 31.566406 51.554688 31.609375 51.515625 Z M 15 31.007812 C 13.996094 30.382812 11.007812 30.226562 9.761719 31.515625 C 9.003906 32.304688 8.84375 33.25 8.691406 34.167969 C 8.589844 34.769531 8.496094 35.339844 8.242188 35.863281 C 7.726562 36.9375 7.34375 37.269531 6.941406 37.617188 C 6.605469 37.90625 6.261719 38.203125 5.832031 38.917969 C 5.34375 39.730469 5.21875 40.617188 5.472656 41.488281 C 5.640625 42.078125 5.988281 42.652344 6.449219 43.136719 C 6.503906 43.195312 6.5625 43.25 6.621094 43.304688 C 6.945312 43.613281 7.320312 43.878906 7.726562 44.082031 C 8.421875 44.429688 9.519531 44.714844 10.652344 44.714844 C 12.140625 44.714844 13.691406 44.222656 14.472656 42.738281 C 14.695312 42.316406 14.777344 41.636719 14.773438 40.855469 C 14.773438 40.789062 14.773438 40.71875 14.769531 40.648438 C 14.753906 39.808594 14.644531 38.867188 14.515625 38.011719 C 14.703125 37.890625 14.867188 37.742188 15.011719 37.5625 C 15.527344 36.910156 15.414062 36.148438 15.324219 35.535156 C 15.292969 35.308594 15.261719 35.097656 15.265625 34.921875 C 15.269531 34.695312 15.320312 34.40625 15.382812 34.070312 C 15.394531 33.992188 15.410156 33.910156 15.425781 33.828125 C 15.660156 33.550781 15.851562 33.296875 15.914062 33.125 C 16.023438 32.832031 16.28125 31.808594 15 31.007812 Z M 14.863281 37.445312 C 14.753906 37.585938 14.625 37.707031 14.484375 37.808594 C 14.289062 36.578125 14.058594 35.558594 14 35.304688 C 14.15625 35.15625 14.710938 34.625 15.1875 34.097656 C 15.132812 34.414062 15.082031 34.691406 15.078125 34.917969 C 15.074219 35.109375 15.105469 35.328125 15.140625 35.5625 C 15.230469 36.167969 15.332031 36.859375 14.863281 37.445312 Z M 22.785156 16.078125 L 34.539062 16.078125 C 34.589844 16.078125 34.628906 16.035156 34.628906 15.984375 L 34.628906 9.527344 C 34.628906 9.472656 34.589844 9.433594 34.539062 9.433594 L 22.785156 9.433594 C 22.769531 9.433594 22.757812 9.433594 22.746094 9.441406 C 22.714844 9.453125 22.691406 9.488281 22.691406 9.527344 L 22.691406 15.984375 C 22.691406 16.035156 22.730469 16.078125 22.785156 16.078125 Z M 22.875 9.617188 L 34.445312 9.617188 L 34.445312 15.890625 L 22.875 15.890625 Z M 16.832031 26.246094 C 16.425781 25.484375 16.484375 24.566406 17 23.730469 C 17.621094 22.726562 18.59375 22.152344 19.410156 21.832031 C 19.472656 21.804688 19.535156 21.785156 19.597656 21.761719 C 20.3125 21.503906 20.863281 21.441406 20.875 21.441406 C 20.878906 21.441406 20.882812 21.441406 20.886719 21.441406 C 21.523438 21.441406 21.695312 22.132812 21.695312 22.542969 C 21.695312 23.503906 21.214844 23.84375 21.195312 23.859375 C 21.191406 23.863281 20.941406 24.058594 20.019531 24.429688 C 19.832031 24.503906 19.683594 24.605469 19.597656 24.714844 C 19.519531 24.808594 19.484375 24.90625 19.5 25 C 19.511719 25.054688 19.542969 25.109375 19.597656 25.164062 C 19.710938 25.273438 19.933594 25.367188 20.308594 25.378906 C 20.753906 25.386719 21.761719 25.394531 22.691406 25.402344 L 22.691406 18.871094 C 22.691406 18.832031 22.714844 18.796875 22.746094 18.785156 C 22.757812 18.78125 22.769531 18.777344 22.785156 18.777344 L 34.539062 18.777344 C 34.589844 18.777344 34.628906 18.820312 34.628906 18.871094 L 34.628906 20.820312 C 35.089844 20.652344 35.644531 20.375 36.191406 19.914062 C 37.25 19.015625 37.308594 17.222656 37.296875 16.621094 C 37.355469 16.652344 37.417969 16.683594 37.484375 16.710938 C 37.492188 17.414062 37.394531 19.140625 36.308594 20.054688 C 35.714844 20.558594 35.117188 20.851562 34.628906 21.019531 L 34.628906 23.34375 C 35.640625 23.152344 37.152344 22.644531 38.226562 21.316406 C 39.609375 19.605469 39.621094 17.386719 39.582031 16.664062 C 39.644531 16.636719 39.707031 16.605469 39.765625 16.570312 C 39.78125 16.84375 39.800781 17.429688 39.703125 18.152344 C 39.570312 19.140625 39.226562 20.378906 38.371094 21.433594 C 37.25 22.820312 35.671875 23.339844 34.628906 23.535156 L 34.628906 28.664062 C 34.628906 28.714844 34.589844 28.757812 34.539062 28.757812 L 27.808594 28.757812 C 27.898438 28.703125 27.988281 28.640625 28.070312 28.570312 L 34.445312 28.570312 L 34.445312 18.964844 L 22.875 18.964844 L 22.875 25.402344 C 23.359375 25.40625 23.808594 25.40625 24.128906 25.410156 C 24.097656 25.46875 24.070312 25.53125 24.042969 25.597656 C 23.042969 25.589844 21 25.582031 20.300781 25.5625 C 19.742188 25.550781 19.375 25.351562 19.316406 25.03125 C 19.265625 24.734375 19.511719 24.429688 19.949219 24.253906 C 20.835938 23.898438 21.082031 23.710938 21.085938 23.707031 C 21.105469 23.691406 21.507812 23.398438 21.507812 22.542969 C 21.507812 22.503906 21.503906 21.632812 20.890625 21.628906 C 20.769531 21.640625 18.320312 21.949219 17.160156 23.832031 C 16.679688 24.605469 16.621094 25.453125 16.996094 26.15625 C 17.460938 27.019531 18.488281 27.535156 19.828125 27.574219 C 21.59375 27.625 23.261719 27.613281 24.074219 27.601562 C 24.101562 27.664062 24.128906 27.726562 24.164062 27.789062 C 23.859375 27.792969 23.414062 27.796875 22.875 27.800781 L 22.875 28.570312 L 24.808594 28.570312 C 24.890625 28.640625 24.980469 28.699219 25.070312 28.757812 L 22.78125 28.757812 C 22.730469 28.757812 22.691406 28.714844 22.691406 28.664062 L 22.691406 27.800781 C 22.652344 27.800781 22.613281 27.800781 22.578125 27.800781 C 21.777344 27.800781 20.816406 27.792969 19.820312 27.761719 C 19.746094 27.757812 19.671875 27.753906 19.597656 27.75 C 19.53125 27.746094 19.472656 27.738281 19.410156 27.734375 C 18.207031 27.605469 17.277344 27.074219 16.832031 26.246094 Z M 38.78125 24.335938 C 38.746094 24.300781 38.683594 24.300781 38.648438 24.335938 L 37.351562 25.640625 C 37.3125 25.675781 37.3125 25.734375 37.351562 25.773438 L 38.449219 26.875 C 38.105469 27.402344 37.867188 27.976562 37.742188 28.59375 L 36.1875 28.59375 C 36.175781 28.59375 36.164062 28.59375 36.15625 28.597656 C 36.121094 28.609375 36.09375 28.644531 36.09375 28.6875 L 36.09375 30.53125 C 36.09375 30.582031 36.136719 30.625 36.1875 30.625 L 37.742188 30.625 C 37.867188 31.238281 38.105469 31.8125 38.449219 32.339844 L 37.351562 33.445312 C 37.332031 33.460938 37.324219 33.484375 37.324219 33.507812 C 37.324219 33.535156 37.332031 33.558594 37.351562 33.574219 L 38.648438 34.878906 C 38.683594 34.914062 38.746094 34.914062 38.78125 34.878906 L 39.878906 33.777344 C 40.402344 34.121094 40.976562 34.359375 41.589844 34.488281 L 41.589844 36.046875 C 41.589844 36.097656 41.632812 36.140625 41.683594 36.140625 L 43.519531 36.140625 C 43.570312 36.140625 43.613281 36.097656 43.613281 36.046875 L 43.613281 34.488281 C 44.226562 34.359375 44.800781 34.121094 45.324219 33.777344 L 46.421875 34.878906 C 46.457031 34.917969 46.515625 34.917969 46.554688 34.878906 L 47.851562 33.574219 C 47.890625 33.539062 47.890625 33.480469 47.851562 33.445312 L 46.753906 32.339844 C 47.097656 31.816406 47.335938 31.238281 47.460938 30.625 L 49.015625 30.625 C 49.066406 30.625 49.109375 30.582031 49.109375 30.53125 L 49.109375 28.6875 C 49.109375 28.632812 49.066406 28.59375 49.015625 28.59375 L 47.460938 28.59375 C 47.335938 27.976562 47.097656 27.402344 46.753906 26.875 L 47.851562 25.773438 C 47.890625 25.734375 47.890625 25.675781 47.851562 25.640625 L 46.554688 24.335938 C 46.515625 24.300781 46.457031 24.300781 46.421875 24.335938 L 45.324219 25.4375 C 44.800781 25.09375 44.226562 24.855469 43.613281 24.726562 L 43.613281 23.167969 C 43.613281 23.117188 43.570312 23.074219 43.519531 23.074219 L 41.683594 23.074219 C 41.632812 23.074219 41.589844 23.117188 41.589844 23.167969 L 41.589844 24.726562 C 40.980469 24.855469 40.410156 25.089844 39.890625 25.433594 C 39.886719 25.4375 39.882812 25.4375 39.878906 25.441406 L 39.703125 25.261719 Z M 39.921875 25.636719 C 40.460938 25.269531 41.058594 25.019531 41.699219 24.894531 C 41.742188 24.886719 41.777344 24.847656 41.777344 24.804688 L 41.777344 23.261719 L 43.425781 23.261719 L 43.425781 24.804688 C 43.425781 24.847656 43.457031 24.886719 43.503906 24.894531 C 44.144531 25.019531 44.742188 25.269531 45.28125 25.636719 C 45.320312 25.664062 45.367188 25.65625 45.402344 25.625 L 46.488281 24.535156 L 47.65625 25.707031 L 46.566406 26.796875 C 46.535156 26.828125 46.53125 26.878906 46.558594 26.917969 C 46.925781 27.457031 47.171875 28.058594 47.292969 28.703125 C 47.304688 28.746094 47.339844 28.78125 47.386719 28.78125 L 48.921875 28.78125 L 48.921875 30.4375 L 47.386719 30.4375 C 47.339844 30.4375 47.304688 30.46875 47.292969 30.511719 C 47.171875 31.15625 46.925781 31.757812 46.558594 32.300781 C 46.53125 32.335938 46.535156 32.386719 46.566406 32.417969 L 47.65625 33.511719 L 46.488281 34.683594 L 45.402344 33.589844 C 45.367188 33.558594 45.320312 33.554688 45.28125 33.578125 C 44.742188 33.949219 44.144531 34.195312 43.503906 34.320312 C 43.457031 34.328125 43.425781 34.367188 43.425781 34.410156 L 43.425781 35.953125 L 41.777344 35.953125 L 41.777344 34.410156 C 41.777344 34.367188 41.742188 34.328125 41.699219 34.320312 C 41.058594 34.195312 40.460938 33.949219 39.921875 33.578125 C 39.882812 33.554688 39.832031 33.558594 39.800781 33.589844 L 38.714844 34.683594 L 37.546875 33.511719 L 38.632812 32.417969 C 38.667969 32.386719 38.671875 32.335938 38.644531 32.300781 C 38.277344 31.757812 38.03125 31.15625 37.910156 30.511719 C 37.898438 30.46875 37.863281 30.4375 37.816406 30.4375 L 36.28125 30.4375 L 36.28125 28.78125 L 37.816406 28.78125 C 37.863281 28.78125 37.898438 28.746094 37.910156 28.703125 C 38.03125 28.058594 38.277344 27.460938 38.644531 26.917969 C 38.671875 26.878906 38.667969 26.828125 38.632812 26.796875 L 37.546875 25.707031 L 38.714844 24.535156 L 39.800781 25.625 C 39.832031 25.65625 39.882812 25.664062 39.921875 25.636719 Z M 42.601562 31.6875 C 43.132812 31.6875 43.660156 31.484375 44.066406 31.078125 C 44.875 30.265625 44.875 28.949219 44.066406 28.136719 C 43.675781 27.746094 43.15625 27.527344 42.601562 27.527344 C 42.046875 27.527344 41.527344 27.746094 41.136719 28.136719 C 40.328125 28.949219 40.328125 30.265625 41.136719 31.078125 C 41.539062 31.484375 42.070312 31.6875 42.601562 31.6875 Z M 41.269531 28.269531 C 41.625 27.914062 42.097656 27.714844 42.601562 27.714844 C 43.105469 27.714844 43.578125 27.914062 43.933594 28.269531 C 44.667969 29.007812 44.667969 30.207031 43.933594 30.945312 C 43.199219 31.683594 42.003906 31.683594 41.269531 30.945312 C 40.535156 30.207031 40.535156 29.007812 41.269531 28.269531 Z M 58.371094 32.570312 L 57.785156 31.082031 C 57.765625 31.035156 57.710938 31.011719 57.664062 31.03125 L 56.417969 31.527344 C 56.121094 31.078125 55.75 30.695312 55.308594 30.382812 L 55.839844 29.148438 C 55.859375 29.101562 55.839844 29.046875 55.792969 29.027344 L 54.328125 28.390625 C 54.304688 28.382812 54.277344 28.382812 54.253906 28.390625 C 54.234375 28.398438 54.214844 28.417969 54.203125 28.441406 L 53.675781 29.675781 C 53.148438 29.566406 52.613281 29.558594 52.082031 29.652344 L 51.589844 28.402344 C 51.578125 28.378906 51.5625 28.363281 51.539062 28.351562 C 51.515625 28.34375 51.492188 28.339844 51.46875 28.351562 L 49.988281 28.941406 C 49.9375 28.960938 49.914062 29.015625 49.933594 29.0625 L 50.429688 30.3125 C 49.980469 30.609375 49.597656 30.984375 49.289062 31.425781 L 48.058594 30.894531 C 48.035156 30.882812 48.011719 30.882812 47.988281 30.894531 C 47.964844 30.902344 47.945312 30.917969 47.9375 30.941406 L 47.304688 32.414062 C 47.296875 32.433594 47.296875 32.460938 47.304688 32.484375 C 47.3125 32.507812 47.332031 32.523438 47.355469 32.535156 L 48.582031 33.066406 C 48.476562 33.597656 48.46875 34.132812 48.558594 34.664062 L 47.316406 35.160156 C 47.269531 35.179688 47.246094 35.234375 47.265625 35.28125 L 47.851562 36.769531 C 47.871094 36.816406 47.925781 36.839844 47.972656 36.820312 L 49.21875 36.324219 C 49.515625 36.777344 49.886719 37.160156 50.328125 37.472656 L 49.796875 38.707031 C 49.789062 38.726562 49.785156 38.753906 49.796875 38.777344 C 49.804688 38.800781 49.824219 38.816406 49.847656 38.828125 L 51.308594 39.460938 C 51.355469 39.480469 51.410156 39.460938 51.433594 39.414062 L 51.960938 38.179688 C 52.488281 38.285156 53.023438 38.292969 53.554688 38.203125 L 54.046875 39.449219 C 54.058594 39.472656 54.074219 39.492188 54.097656 39.5 C 54.109375 39.507812 54.121094 39.507812 54.132812 39.507812 C 54.144531 39.507812 54.15625 39.507812 54.167969 39.503906 L 55.648438 38.910156 C 55.699219 38.890625 55.722656 38.839844 55.703125 38.789062 L 55.207031 37.542969 C 55.65625 37.242188 56.039062 36.871094 56.347656 36.429688 L 57.578125 36.960938 C 57.625 36.980469 57.679688 36.957031 57.699219 36.910156 L 58.332031 35.441406 C 58.351562 35.394531 58.332031 35.339844 58.285156 35.320312 L 57.054688 34.785156 C 57.160156 34.257812 57.167969 33.71875 57.078125 33.1875 L 58.320312 32.691406 C 58.34375 32.683594 58.363281 32.664062 58.371094 32.644531 C 58.382812 32.621094 58.382812 32.59375 58.371094 32.570312 Z M 56.9375 33.042969 C 56.894531 33.058594 56.871094 33.105469 56.878906 33.148438 C 56.984375 33.703125 56.976562 34.265625 56.855469 34.820312 C 56.847656 34.867188 56.867188 34.910156 56.910156 34.925781 L 58.125 35.453125 L 57.566406 36.75 L 56.351562 36.226562 C 56.3125 36.207031 56.261719 36.222656 56.238281 36.257812 C 55.921875 36.730469 55.519531 37.121094 55.042969 37.425781 C 55.003906 37.449219 54.988281 37.496094 55.007812 37.539062 L 55.496094 38.773438 L 54.1875 39.292969 L 53.699219 38.0625 C 53.683594 38.023438 53.648438 38.003906 53.613281 38.003906 C 53.605469 38.003906 53.601562 38.003906 53.59375 38.003906 C 53.039062 38.109375 52.480469 38.101562 51.925781 37.980469 C 51.882812 37.96875 51.839844 37.992188 51.820312 38.035156 L 51.296875 39.253906 L 50.003906 38.691406 L 50.527344 37.472656 C 50.546875 37.433594 50.53125 37.386719 50.496094 37.359375 C 50.027344 37.042969 49.636719 36.636719 49.332031 36.160156 C 49.308594 36.121094 49.261719 36.105469 49.21875 36.125 L 47.992188 36.613281 L 47.472656 35.300781 L 48.699219 34.808594 C 48.742188 34.792969 48.765625 34.75 48.757812 34.707031 C 48.648438 34.148438 48.660156 33.585938 48.78125 33.03125 C 48.789062 32.988281 48.769531 32.945312 48.726562 32.925781 L 47.511719 32.398438 L 48.070312 31.101562 L 49.285156 31.628906 C 49.324219 31.644531 49.375 31.632812 49.398438 31.59375 C 49.714844 31.125 50.117188 30.730469 50.59375 30.425781 C 50.632812 30.402344 50.648438 30.355469 50.628906 30.3125 L 50.140625 29.082031 L 51.449219 28.558594 L 51.9375 29.792969 C 51.957031 29.832031 51.996094 29.859375 52.042969 29.847656 C 52.597656 29.742188 53.160156 29.75 53.710938 29.875 C 53.753906 29.882812 53.796875 29.859375 53.816406 29.820312 L 54.339844 28.601562 L 55.632812 29.160156 L 55.109375 30.378906 C 55.089844 30.421875 55.105469 30.46875 55.140625 30.492188 C 55.609375 30.8125 56 31.214844 56.304688 31.691406 C 56.328125 31.730469 56.375 31.746094 56.417969 31.730469 L 57.644531 31.238281 L 58.164062 32.554688 Z M 53.535156 32.257812 C 53.089844 32.066406 52.597656 32.058594 52.148438 32.238281 C 51.699219 32.417969 51.347656 32.761719 51.15625 33.207031 C 50.964844 33.652344 50.957031 34.148438 51.136719 34.597656 C 51.316406 35.046875 51.65625 35.402344 52.101562 35.59375 C 52.332031 35.695312 52.574219 35.746094 52.816406 35.746094 C 53.042969 35.746094 53.269531 35.699219 53.488281 35.613281 C 53.9375 35.433594 54.289062 35.089844 54.480469 34.644531 C 54.671875 34.199219 54.679688 33.707031 54.5 33.253906 C 54.320312 32.804688 53.980469 32.449219 53.535156 32.257812 Z M 54.308594 34.570312 C 54.136719 34.972656 53.820312 35.28125 53.417969 35.441406 C 53.015625 35.601562 52.574219 35.59375 52.175781 35.421875 C 51.777344 35.25 51.46875 34.933594 51.308594 34.527344 C 51.148438 34.125 51.15625 33.679688 51.328125 33.28125 C 51.5 32.882812 51.816406 32.574219 52.21875 32.410156 C 52.414062 32.335938 52.617188 32.296875 52.820312 32.296875 C 53.035156 32.296875 53.253906 32.339844 53.460938 32.429688 C 54.28125 32.785156 54.664062 33.746094 54.308594 34.570312 Z M 29.28125 38.304688 C 29.28125 38.660156 29.566406 38.945312 29.917969 38.945312 C 30.269531 38.945312 30.554688 38.660156 30.554688 38.304688 C 30.554688 37.953125 30.269531 37.667969 29.917969 37.667969 C 29.570312 37.667969 29.28125 37.953125 29.28125 38.304688 Z M 30.367188 38.304688 C 30.367188 38.554688 30.167969 38.757812 29.917969 38.757812 C 29.671875 38.757812 29.46875 38.554688 29.46875 38.304688 C 29.46875 38.058594 29.671875 37.855469 29.917969 37.855469 C 30.167969 37.855469 30.367188 38.058594 30.367188 38.304688 Z M 26.976562 38.304688 C 26.976562 38.660156 27.261719 38.945312 27.613281 38.945312 C 27.964844 38.945312 28.25 38.660156 28.25 38.304688 C 28.25 37.953125 27.964844 37.667969 27.613281 37.667969 C 27.261719 37.667969 26.976562 37.953125 26.976562 38.304688 Z M 28.0625 38.304688 C 28.0625 38.554688 27.863281 38.757812 27.613281 38.757812 C 27.367188 38.757812 27.164062 38.554688 27.164062 38.304688 C 27.164062 38.058594 27.367188 37.855469 27.613281 37.855469 C 27.863281 37.855469 28.0625 38.058594 28.0625 38.304688 Z M 24.671875 38.304688 C 24.671875 38.660156 24.957031 38.945312 25.308594 38.945312 C 25.660156 38.945312 25.945312 38.660156 25.945312 38.304688 C 25.945312 37.953125 25.660156 37.667969 25.308594 37.667969 C 24.957031 37.667969 24.671875 37.953125 24.671875 38.304688 Z M 25.757812 38.304688 C 25.757812 38.554688 25.554688 38.757812 25.308594 38.757812 C 25.058594 38.757812 24.859375 38.554688 24.859375 38.304688 C 24.859375 38.058594 25.058594 37.855469 25.308594 37.855469 C 25.554688 37.855469 25.757812 38.058594 25.757812 38.304688 Z M 7.191406 20.289062 C 7.183594 20.273438 7.179688 20.257812 7.183594 20.242188 C 7.183594 20.238281 7.183594 20.234375 7.183594 20.230469 C 7.183594 20.222656 7.183594 20.21875 7.1875 20.210938 C 7.191406 20.203125 7.195312 20.195312 7.203125 20.191406 C 7.203125 20.1875 7.203125 20.1875 7.207031 20.183594 C 7.21875 20.171875 7.230469 20.164062 7.246094 20.160156 C 7.25 20.15625 7.253906 20.15625 7.257812 20.15625 C 7.277344 20.152344 7.292969 20.152344 7.308594 20.160156 L 11.097656 21.695312 C 11.128906 21.707031 11.152344 21.738281 11.15625 21.773438 C 11.15625 21.808594 11.140625 21.84375 11.109375 21.863281 L 7.566406 23.902344 C 7.550781 23.910156 7.535156 23.914062 7.519531 23.914062 C 7.496094 23.914062 7.472656 23.90625 7.457031 23.890625 C 7.425781 23.863281 7.417969 23.820312 7.433594 23.785156 L 8.164062 22.015625 L 8.179688 21.972656 C 8.199219 21.925781 8.253906 21.902344 8.304688 21.921875 C 8.324219 21.933594 8.339844 21.949219 8.347656 21.96875 C 8.355469 21.976562 8.355469 21.984375 8.359375 21.996094 C 8.359375 22 8.359375 22.003906 8.359375 22.007812 C 8.359375 22.019531 8.359375 22.03125 8.351562 22.046875 L 7.710938 23.601562 L 10.847656 21.796875 L 7.238281 20.332031 C 7.21875 20.324219 7.203125 20.308594 7.191406 20.289062 Z M 5.386719 34.171875 C 3.300781 32.820312 1.386719 29.269531 1.945312 26.542969 C 2.648438 23.101562 6.382812 22.25 6.421875 22.242188 C 6.46875 22.230469 6.519531 22.265625 6.53125 22.316406 C 6.542969 22.363281 6.511719 22.414062 6.460938 22.425781 C 6.421875 22.433594 2.804688 23.261719 2.125 26.582031 C 1.582031 29.238281 3.453125 32.695312 5.488281 34.015625 C 5.53125 34.042969 5.542969 34.101562 5.515625 34.144531 C 5.496094 34.171875 5.46875 34.1875 5.4375 34.1875 C 5.417969 34.1875 5.402344 34.183594 5.386719 34.171875 Z M 5.386719 34.171875 " fill-opacity="1" fill-rule="nonzero"/></g></svg>