<svg xmlns="http://www.w3.org/2000/svg" xmlns:xlink="http://www.w3.org/1999/xlink" width="80" zoomAndPan="magnify" viewBox="0 0 60 60" height="80" preserveAspectRatio="xMidYMid meet" version="1.0"><defs><clipPath id="e975383dec"><path d="M 10 23.191406 L 54 23.191406 L 54 36.691406 L 10 36.691406 Z M 10 23.191406 " clip-rule="nonzero"/></clipPath><clipPath id="7eb400e76f"><path d="M 6 23.191406 L 10 23.191406 L 10 34 L 6 34 Z M 6 23.191406 " clip-rule="nonzero"/></clipPath></defs><g clip-path="url(#e975383dec)"><path fill="#ffffff" d="M 53.800781 30.183594 C 53.722656 30.277344 53.617188 30.363281 53.558594 30.476562 C 53.472656 30.703125 53.453125 30.960938 53.328125 31.167969 C 53.242188 31.328125 53.035156 31.558594 52.917969 31.539062 C 52.757812 31.519531 52.574219 31.3125 52.476562 31.140625 C 52.375 30.949219 52.316406 30.703125 52.316406 30.476562 C 52.296875 29.527344 52.285156 28.578125 52.304688 27.628906 C 52.316406 26.878906 52.21875 26.699219 51.503906 26.480469 C 51.015625 26.320312 50.792969 26.40625 50.621094 26.910156 C 50.363281 27.660156 50.132812 28.4375 49.894531 29.195312 C 49.867188 29.289062 49.828125 29.375 49.800781 29.46875 C 49.710938 29.328125 49.683594 29.203125 49.683594 29.070312 C 49.664062 28.484375 49.636719 27.875 49.609375 27.289062 C 49.589844 26.804688 49.3125 26.546875 48.785156 26.425781 C 48.316406 26.320312 48.144531 26.632812 48 26.964844 C 47.886719 27.242188 47.78125 27.527344 47.675781 27.800781 C 47.578125 28.066406 47.484375 28.351562 47.367188 28.664062 C 47.320312 28.589844 47.300781 28.578125 47.300781 28.558594 C 47.300781 28.132812 47.292969 27.6875 47.292969 27.261719 C 47.292969 26.613281 47.273438 26.585938 46.640625 26.464844 C 46.210938 26.378906 46.125 26.445312 46.105469 26.871094 C 46.09375 27.847656 46.113281 28.824219 46.058594 29.8125 C 46.039062 30.230469 45.902344 30.664062 45.75 31.0625 C 45.65625 31.339844 45.484375 31.679688 45.089844 31.625 C 44.6875 31.566406 44.652344 31.195312 44.632812 30.894531 C 44.613281 29.6875 44.601562 28.484375 44.613281 27.269531 C 44.613281 26.945312 44.601562 26.699219 44.230469 26.613281 C 43.875 26.53125 43.492188 26.359375 43.3125 26.871094 C 42.171875 26 41.226562 26.214844 40.582031 27.496094 C 40.125 28.40625 40.078125 29.402344 40.171875 30.398438 C 40.191406 30.570312 40.238281 30.769531 40.191406 30.929688 C 40.105469 31.253906 39.980469 31.625 39.558594 31.644531 C 39.140625 31.660156 38.996094 31.3125 38.957031 30.996094 C 38.878906 30.496094 38.824219 29.972656 38.859375 29.46875 C 38.910156 28.882812 39.070312 28.292969 39.175781 27.707031 C 39.273438 27.175781 39.023438 26.890625 38.476562 26.917969 C 38.269531 26.929688 38.078125 26.984375 37.875 27.003906 C 37.636719 27.03125 37.40625 27.078125 37.167969 27.109375 C 37.1875 27.078125 37.226562 27.03125 37.242188 27.003906 C 37.109375 26.757812 37.035156 26.425781 36.832031 26.292969 C 36.660156 26.1875 36.285156 26.246094 36.078125 26.359375 C 35.65625 26.585938 35.53125 27.269531 35.847656 27.648438 C 36.027344 27.867188 36.039062 28.058594 35.933594 28.273438 C 35.589844 29.003906 35.234375 29.746094 34.878906 30.476562 C 34.832031 30.570312 34.738281 30.65625 34.667969 30.742188 C 34.582031 30.570312 34.582031 30.429688 34.582031 30.277344 C 34.59375 29.242188 34.601562 28.207031 34.601562 27.175781 C 34.601562 27.023438 34.574219 26.832031 34.488281 26.738281 C 34.164062 26.425781 33.597656 26.492188 33.320312 26.851562 C 33.273438 26.824219 33.234375 26.796875 33.1875 26.765625 C 32.375 26.09375 31.453125 26.207031 30.859375 27.078125 C 30.183594 28.09375 30.125 29.234375 30.164062 30.398438 C 30.171875 30.722656 30.066406 31.101562 29.894531 31.378906 C 29.65625 31.785156 29.226562 31.71875 29.0625 31.28125 C 28.976562 31.046875 28.917969 30.78125 28.917969 30.53125 C 28.910156 29.402344 28.910156 28.285156 28.9375 27.15625 C 28.949219 26.691406 28.660156 26.625 28.316406 26.558594 C 28 26.492188 27.730469 26.492188 27.664062 26.929688 C 26.824219 26.179688 25.953125 26.140625 25.359375 26.863281 C 25.082031 27.195312 24.84375 27.609375 24.71875 28.019531 C 24.554688 28.558594 24.507812 29.136719 24.449219 29.699219 C 24.375 30.316406 24.144531 30.847656 23.695312 31.28125 C 23.378906 31.578125 23.109375 31.519531 22.957031 31.128906 C 22.859375 30.855469 22.785156 30.550781 22.785156 30.257812 C 22.792969 28.996094 22.832031 27.734375 22.851562 26.472656 C 22.851562 26.246094 22.949219 26.148438 23.175781 26.160156 C 23.550781 26.160156 23.914062 26.148438 24.285156 26.148438 C 24.613281 26.148438 24.707031 25.960938 24.726562 25.683594 C 24.757812 25.371094 24.535156 25.371094 24.324219 25.363281 C 24.164062 25.351562 24 25.351562 23.835938 25.34375 C 22.898438 25.316406 22.898438 25.316406 22.9375 24.40625 C 22.9375 24.355469 22.9375 24.320312 22.9375 24.289062 C 22.957031 23.578125 22.949219 23.558594 22.230469 23.40625 C 22.171875 23.398438 22.125 23.390625 22.066406 23.378906 C 21.769531 23.3125 21.625 23.425781 21.597656 23.722656 C 21.578125 24.121094 21.539062 24.507812 21.539062 24.90625 C 21.539062 25.171875 21.433594 25.277344 21.15625 25.238281 C 20.898438 25.21875 20.640625 25.210938 20.375 25.210938 C 19.980469 25.21875 19.992188 25.535156 19.953125 25.789062 C 19.90625 26.09375 20.125 26.101562 20.34375 26.101562 C 20.59375 26.101562 20.832031 26.121094 21.082031 26.121094 C 21.339844 26.121094 21.433594 26.226562 21.433594 26.492188 C 21.425781 27.316406 21.445312 28.152344 21.40625 28.976562 C 21.378906 29.679688 21.003906 30.25 20.429688 30.828125 C 20.535156 29.300781 19.226562 28.929688 18.476562 28.179688 C 18.667969 27.808594 18.890625 27.488281 19.015625 27.136719 C 19.195312 26.605469 18.949219 26.320312 18.390625 26.339844 C 17.453125 26.367188 16.859375 27.429688 17.28125 28.257812 C 17.359375 28.398438 17.367188 28.636719 17.300781 28.757812 C 16.964844 29.394531 16.601562 30.019531 16.199219 30.617188 C 16.125 30.847656 15.855469 31.007812 15.636719 31.1875 C 15.558594 30.914062 15.40625 30.636719 15.40625 30.363281 C 15.398438 29.394531 15.433594 28.4375 15.472656 27.46875 C 15.484375 27.117188 15.359375 26.878906 15.0625 26.691406 C 14.402344 26.292969 13.90625 26.3125 13.445312 26.929688 C 13.070312 27.421875 12.8125 28 12.535156 28.550781 C 12.402344 28.796875 12.34375 29.054688 12.238281 29.308594 C 12.210938 29.300781 12.171875 29.300781 12.132812 29.289062 C 12.132812 29.148438 12.132812 28.996094 12.132812 28.863281 C 12.144531 28.238281 12.152344 27.609375 12.152344 26.996094 C 12.152344 26.664062 11.761719 26.414062 11.3125 26.425781 C 10.9375 26.433594 11.003906 26.71875 11.003906 26.929688 C 10.996094 28.371094 10.996094 29.8125 10.984375 31.246094 C 10.984375 31.414062 10.996094 31.59375 11.035156 31.777344 C 11.121094 32.230469 11.300781 32.34375 11.769531 32.355469 C 12.210938 32.363281 12.210938 32.078125 12.269531 31.777344 C 12.527344 30.410156 12.917969 29.089844 13.722656 27.914062 C 13.828125 27.753906 13.980469 27.601562 14.125 27.449219 C 14.21875 27.675781 14.21875 27.847656 14.21875 28.019531 C 14.210938 29.109375 14.171875 30.191406 14.210938 31.28125 C 14.21875 31.691406 14.304688 32.15625 14.792969 32.316406 C 15.273438 32.476562 15.65625 32.222656 15.960938 31.898438 C 16.21875 31.644531 16.460938 31.347656 16.660156 31.046875 C 17.035156 30.484375 17.359375 29.90625 17.703125 29.335938 C 17.78125 29.203125 17.867188 29.089844 18.007812 28.882812 C 18.402344 29.308594 18.792969 29.679688 19.089844 30.097656 C 19.386719 30.515625 19.332031 31.074219 19.035156 31.328125 C 18.773438 31.566406 18.460938 31.511719 17.960938 31.179688 C 17.589844 30.929688 17.425781 30.960938 17.195312 31.328125 C 16.9375 31.738281 17.003906 31.957031 17.453125 32.15625 C 18.640625 32.6875 20.019531 32.335938 20.804688 31.292969 C 21.035156 30.988281 21.214844 30.65625 21.453125 30.296875 C 21.558594 30.675781 21.625 30.996094 21.730469 31.3125 C 21.914062 31.84375 22.230469 32.25 22.84375 32.335938 C 23.445312 32.421875 23.808594 32.042969 24.125 31.613281 C 24.277344 31.394531 24.390625 31.179688 24.546875 30.914062 C 25.140625 32.6875 26.824219 32.828125 27.886719 31.292969 C 28.59375 32.648438 29.253906 32.707031 30.449219 31.511719 C 31.523438 32.628906 31.808594 32.640625 33.398438 31.605469 C 33.417969 31.625 33.445312 31.632812 33.453125 31.660156 C 33.53125 31.9375 33.386719 32.117188 33.207031 32.296875 C 32.527344 32.972656 31.761719 33.605469 31.195312 34.382812 C 30.441406 35.4375 31.121094 36.625 32.429688 36.671875 C 32.9375 36.691406 33.367188 36.519531 33.742188 36.1875 C 34.144531 35.835938 34.382812 35.378906 34.421875 34.878906 C 34.515625 33.996094 34.515625 33.09375 34.59375 32.210938 C 34.613281 31.964844 34.6875 31.671875 34.84375 31.480469 C 35.589844 30.53125 36.210938 29.519531 36.660156 28.40625 C 36.910156 27.808594 37.15625 27.6875 37.847656 27.90625 C 37.828125 28.046875 37.789062 28.179688 37.78125 28.332031 C 37.722656 29.003906 37.636719 29.679688 37.625 30.351562 C 37.617188 30.894531 37.769531 31.40625 38.125 31.824219 C 38.746094 32.554688 39.644531 32.535156 40.230469 31.777344 C 40.296875 31.699219 40.363281 31.625 40.449219 31.519531 C 40.84375 32.136719 41.347656 32.429688 42.058594 32.335938 C 42.726562 32.242188 43.140625 31.785156 43.539062 31.234375 C 43.75 31.824219 44.046875 32.230469 44.652344 32.34375 C 45.28125 32.449219 45.675781 32.117188 45.921875 31.605469 C 46.078125 31.859375 46.144531 32.144531 46.316406 32.25 C 46.957031 32.628906 47.453125 32.324219 47.472656 31.613281 C 47.472656 31.425781 47.472656 31.234375 47.484375 31.046875 C 47.53125 30.097656 47.75 29.195312 48.152344 28.332031 C 48.21875 28.199219 48.316406 28.085938 48.449219 27.894531 C 48.46875 28.085938 48.496094 28.171875 48.496094 28.246094 C 48.59375 29.203125 48.679688 30.164062 48.804688 31.121094 C 48.824219 31.339844 48.949219 31.605469 49.109375 31.710938 C 49.320312 31.84375 49.617188 31.890625 49.855469 31.859375 C 49.953125 31.851562 50.046875 31.527344 50.09375 31.328125 C 50.304688 30.4375 50.476562 29.535156 50.679688 28.625 C 50.738281 28.390625 50.859375 28.171875 50.957031 27.953125 C 51.035156 28.046875 51.042969 28.132812 51.050781 28.207031 C 51.070312 28.929688 51.070312 29.652344 51.121094 30.363281 C 51.148438 30.914062 51.261719 31.433594 51.625 31.878906 C 52.25 32.609375 53.242188 32.496094 53.625 31.632812 C 53.769531 31.300781 53.835938 30.929688 53.886719 30.582031 C 53.980469 30.4375 53.855469 30.316406 53.800781 30.183594 Z M 27.433594 30.828125 C 27.28125 31.214844 27.042969 31.613281 26.566406 31.566406 C 26.066406 31.519531 25.941406 31.074219 25.867188 30.675781 C 25.789062 30.332031 25.78125 29.972656 25.714844 29.480469 C 25.808594 29.054688 25.886719 28.464844 26.058594 27.925781 C 26.210938 27.449219 26.566406 27.210938 26.929688 27.261719 C 27.398438 27.316406 27.570312 27.667969 27.644531 28.046875 C 27.855469 28.976562 27.800781 29.925781 27.433594 30.828125 Z M 33.214844 30.570312 C 33.167969 30.75 33.109375 30.96875 32.976562 31.082031 C 32.757812 31.292969 32.496094 31.519531 32.230469 31.558594 C 31.886719 31.605469 31.714844 31.246094 31.625 30.929688 C 31.332031 29.917969 31.386719 28.921875 31.769531 27.941406 C 31.835938 27.78125 31.933594 27.628906 32.046875 27.507812 C 32.460938 27.070312 33.070312 27.164062 33.253906 27.726562 C 33.398438 28.132812 33.417969 28.578125 33.492188 29.015625 C 33.417969 29.535156 33.332031 30.066406 33.214844 30.570312 Z M 33.234375 35.644531 C 33.050781 36.054688 32.601562 36.226562 32.25 36.082031 C 31.921875 35.949219 31.761719 35.589844 31.875 35.144531 C 32.132812 34.234375 32.8125 33.605469 33.492188 32.988281 C 33.597656 33.929688 33.609375 34.8125 33.234375 35.644531 Z M 43.128906 30.683594 C 43.0625 30.921875 42.910156 31.160156 42.738281 31.339844 C 42.382812 31.726562 41.941406 31.660156 41.703125 31.195312 C 41.589844 30.96875 41.484375 30.714844 41.472656 30.464844 C 41.464844 29.765625 41.484375 29.054688 41.550781 28.359375 C 41.570312 28.09375 41.710938 27.808594 41.875 27.582031 C 42.257812 27.042969 42.9375 27.117188 43.167969 27.734375 C 43.320312 28.152344 43.347656 28.625 43.445312 29.101562 C 43.347656 29.632812 43.273438 30.171875 43.128906 30.683594 Z M 43.128906 30.683594 " fill-opacity="1" fill-rule="nonzero"/></g><g clip-path="url(#7eb400e76f)"><path fill="#ffffff" d="M 7.089844 28.523438 C 7.253906 28.617188 7.445312 28.625 7.636719 28.683594 C 7.664062 28.664062 7.695312 28.636719 7.722656 28.605469 C 6.773438 26.910156 7.234375 25.46875 8.375 24.140625 C 8.429688 24.148438 8.480469 24.15625 8.527344 24.167969 C 8.535156 24.273438 8.546875 24.386719 8.546875 24.488281 C 8.535156 26.8125 8.535156 29.136719 8.496094 31.453125 C 8.488281 31.945312 8.34375 32.441406 8.269531 32.933594 C 8.25 33.074219 8.21875 33.199219 8.183594 33.40625 C 8.738281 33.339844 9.101562 33.074219 9.28125 32.6875 C 9.523438 32.15625 9.761719 31.585938 9.769531 31.027344 C 9.835938 28.683594 9.816406 26.332031 9.816406 23.976562 C 9.816406 23.824219 9.722656 23.609375 9.597656 23.542969 C 9.242188 23.304688 8.832031 23.191406 8.402344 23.425781 C 7.128906 24.128906 6.355469 25.203125 6.132812 26.632812 C 6.019531 27.460938 6.363281 28.105469 7.089844 28.523438 Z M 7.089844 28.523438 " fill-opacity="1" fill-rule="nonzero"/></g></svg>